<?xml version="1.0"?>
<svg xmlns="http://www.w3.org/2000/svg" viewBox="0 0 80 80" width="480px" height="480px">
    <path style="line-height:normal;text-indent:0;text-align:start;text-decoration-line:none;text-decoration-style:solid;text-decoration-color:#000;text-transform:none;block-progression:tb;isolation:auto;mix-blend-mode:normal" d="M 69.970703 10 A 1.0001 1.0001 0 0 0 69.867188 10.007812 L 9.8671875 18.007812 A 1.0001 1.0001 0 0 0 9 19 L 9 61 A 1.0001 1.0001 0 0 0 9.8671875 61.992188 L 69.867188 69.992188 A 1.0001 1.0001 0 0 0 71 69 L 71 11 A 1.0001 1.0001 0 0 0 69.970703 10 z M 69 12.142578 L 69 39 L 40 39 L 40 16.007812 L 69 12.142578 z M 38 16.275391 L 38 39 L 11 39 L 11 19.875 L 38 16.275391 z M 15 22 A 1 1 0 0 0 14 23 A 1 1 0 0 0 15 24 A 1 1 0 0 0 16 23 A 1 1 0 0 0 15 22 z M 44 22 A 1 1 0 0 0 43 23 A 1 1 0 0 0 44 24 A 1 1 0 0 0 45 23 A 1 1 0 0 0 44 22 z M 15 26 A 1 1 0 0 0 14 27 A 1 1 0 0 0 15 28 A 1 1 0 0 0 16 27 A 1 1 0 0 0 15 26 z M 44 26 A 1 1 0 0 0 43 27 A 1 1 0 0 0 44 28 A 1 1 0 0 0 45 27 A 1 1 0 0 0 44 26 z M 15 30 A 1 1 0 0 0 14 31 A 1 1 0 0 0 15 32 A 1 1 0 0 0 16 31 A 1 1 0 0 0 15 30 z M 44 30 A 1 1 0 0 0 43 31 A 1 1 0 0 0 44 32 A 1 1 0 0 0 45 31 A 1 1 0 0 0 44 30 z M 15 34 A 1 1 0 0 0 14 35 A 1 1 0 0 0 15 36 A 1 1 0 0 0 16 35 A 1 1 0 0 0 15 34 z M 19 34 A 1 1 0 0 0 18 35 A 1 1 0 0 0 19 36 A 1 1 0 0 0 20 35 A 1 1 0 0 0 19 34 z M 23 34 A 1 1 0 0 0 22 35 A 1 1 0 0 0 23 36 A 1 1 0 0 0 24 35 A 1 1 0 0 0 23 34 z M 27 34 A 1 1 0 0 0 26 35 A 1 1 0 0 0 27 36 A 1 1 0 0 0 28 35 A 1 1 0 0 0 27 34 z M 44 34 A 1 1 0 0 0 43 35 A 1 1 0 0 0 44 36 A 1 1 0 0 0 45 35 A 1 1 0 0 0 44 34 z M 48 34 A 1 1 0 0 0 47 35 A 1 1 0 0 0 48 36 A 1 1 0 0 0 49 35 A 1 1 0 0 0 48 34 z M 52 34 A 1 1 0 0 0 51 35 A 1 1 0 0 0 52 36 A 1 1 0 0 0 53 35 A 1 1 0 0 0 52 34 z M 56 34 A 1 1 0 0 0 55 35 A 1 1 0 0 0 56 36 A 1 1 0 0 0 57 35 A 1 1 0 0 0 56 34 z M 11 41 L 38 41 L 38 63.724609 L 11 60.125 L 11 41 z M 40 41 L 69 41 L 69 67.857422 L 40 63.992188 L 40 41 z M 15 44 A 1 1 0 0 0 14 45 A 1 1 0 0 0 15 46 A 1 1 0 0 0 16 45 A 1 1 0 0 0 15 44 z M 44 44 A 1 1 0 0 0 43 45 A 1 1 0 0 0 44 46 A 1 1 0 0 0 45 45 A 1 1 0 0 0 44 44 z M 15 48 A 1 1 0 0 0 14 49 A 1 1 0 0 0 15 50 A 1 1 0 0 0 16 49 A 1 1 0 0 0 15 48 z M 44 48 A 1 1 0 0 0 43 49 A 1 1 0 0 0 44 50 A 1 1 0 0 0 45 49 A 1 1 0 0 0 44 48 z M 15 52 A 1 1 0 0 0 14 53 A 1 1 0 0 0 15 54 A 1 1 0 0 0 16 53 A 1 1 0 0 0 15 52 z M 44 52 A 1 1 0 0 0 43 53 A 1 1 0 0 0 44 54 A 1 1 0 0 0 45 53 A 1 1 0 0 0 44 52 z M 15 56 A 1 1 0 0 0 14 57 A 1 1 0 0 0 15 58 A 1 1 0 0 0 16 57 A 1 1 0 0 0 15 56 z M 44 56 A 1 1 0 0 0 43 57 A 1 1 0 0 0 44 58 A 1 1 0 0 0 45 57 A 1 1 0 0 0 44 56 z M 44 60 A 1 1 0 0 0 43 61 A 1 1 0 0 0 44 62 A 1 1 0 0 0 45 61 A 1 1 0 0 0 44 60 z"/>
</svg>
